<svg width="21" height="13" viewBox="0 0 21 16" fill="none" xmlns="http://www.w3.org/2000/svg">
    <g>
        <path
            d="M4.66812 1.15701C4.38357 0.624742 3.82852 0.292972 3.22499 0.294316H0.933609V3.35927C0.933609 3.70064 1.23333 3.97678 1.5748 3.97678H6.17743L4.66812 1.15701Z"
            fill="#C7C7C7" transform="translate(13,1)"
        />
        <path
            d="M20.6466 7.06404L19.6335 5.7729H14.5748C13.7943 5.7729 13.1374 5.13961 13.1374 4.35918V0.589641C13.1447 0.271307 12.8925 0.0074144 12.5742 0.000149016C12.5629 -9.97985e-05 12.5516 -5.01722e-05 12.5403 0.000397694H0.634577C0.293153 0.000397694 0 0.248217 0 0.589641V11.4847C0 11.8262 0.293153 12.0928 0.634577 12.0928H1.69119C1.89637 10.585 3.285 9.52895 4.79282 9.73407C6.01972 9.90103 6.98457 10.8659 7.15153 12.0928H12.7706C12.9759 10.5849 14.3646 9.529 15.8725 9.73422C17.0993 9.90123 18.064 10.866 18.231 12.0928H20.3654C20.7068 12.0928 21 11.8262 21 11.4847V8.07075C20.9966 7.70534 20.8724 7.35138 20.6466 7.06404Z"
            fill="#C7C7C7" />
        <path transform="translate(1.9, 10)" d="M2.50068 0.516296C1.41828 0.516296 0.540863 1.39372 0.540863 2.47611C0.540863 3.5585 1.41828 4.43592 2.50068 4.43592C3.58307 4.43592 4.46049 3.5585 4.46049 2.47611C4.46049 2.47606 4.46049 2.47601 4.46049 2.47596C4.4592 1.39416 3.58247 0.51754 2.50068 0.516296Z" fill="#C7C7C7"/>
        <path transform="translate(13, 10)" d="M2.50068 0.516296C1.41828 0.516296 0.540863 1.39372 0.540863 2.47611C0.540863 3.5585 1.41828 4.43592 2.50068 4.43592C3.58307 4.43592 4.46049 3.5585 4.46049 2.47611C4.46049 2.47606 4.46049 2.47601 4.46049 2.47596C4.4592 1.39416 3.58247 0.51754 2.50068 0.516296Z" fill="#C7C7C7"/>
    </g>
</svg>