<svg xmlns="http://www.w3.org/2000/svg">
    <path d="M0 3L7 0L14 3V10.5C13 18 7 19 7 19C7 19 1 18 0 10.5V3ZM8.13247 7.07651L7.43896 5.80489C7.24946 5.45742 6.75054 5.45742 6.56104 5.80489L5.86754 7.07651C5.79562 7.20838 5.66824 7.30092 5.52061 7.32857L4.09692 7.59518C3.7079 7.66803 3.55372 8.14254 3.82562 8.43014L4.8207 9.48265C4.92389 9.59179 4.97255 9.74154 4.95322 9.89049L4.76683 11.3269C4.7159 11.7194 5.11954 12.0126 5.47709 11.8429L6.78558 11.2218C6.92127 11.1574 7.07873 11.1574 7.21441 11.2218L8.52291 11.8429C8.88045 12.0126 9.2841 11.7194 9.23317 11.3269L9.04678 9.89049C9.02745 9.74154 9.07611 9.59179 9.1793 9.48265L10.1744 8.43014C10.4463 8.14254 10.2921 7.66803 9.90308 7.59518L8.4794 7.32857C8.33176 7.30092 8.20438 7.20838 8.13247 7.07651Z" fill="#C4C4C4"/>
</svg>